<svg width="24" height="24" viewBox="0 0 24 24" fill="none" xmlns="http://www.w3.org/2000/svg">
<path fill-rule="evenodd" clip-rule="evenodd" d="M11.1758 11.53C11.7223 10.763 11.6613 9.9553 11.2824 8.50235C10.533 5.62882 10.8314 4.05383 13.4148 2.18916L14.6756 1.27905L14.9806 2.80389C15.3047 4.42441 15.837 5.42671 17.2036 7.35464C17.2579 7.43122 17.2579 7.43122 17.3124 7.50814C19.281 10.2854 20 11.9596 20 15C20 18.6884 16.2714 22 12 22C7.72843 22 4.00002 18.6888 4.00002 15C4.00002 14.9311 4.00009 14.9331 3.98841 14.6285C3.89805 12.2718 4.33383 10.4274 6.09709 8.43586C6.46963 8.01509 6.8931 7.61068 7.36965 7.22371L8.42164 6.36946L8.92768 7.62658C9.3016 8.55547 9.73972 9.28567 10.2346 9.82151C10.6538 10.2754 10.9648 10.8461 11.1758 11.53Z" fill="#F07A5A"/>
</svg>
