<svg width="16" height="16" viewBox="0 0 16 16" fill="none" xmlns="http://www.w3.org/2000/svg">
<path fill-rule="evenodd" clip-rule="evenodd" d="M1.33333 6.99992C1.33333 3.87031 3.87038 1.33325 7 1.33325C10.1296 1.33325 12.6667 3.87031 12.6667 6.99992C12.6667 8.3245 12.2122 9.54293 11.4507 10.5078L14.4714 13.5285C14.7317 13.7889 14.7317 14.211 14.4714 14.4713C14.2111 14.7317 13.7889 14.7317 13.5286 14.4713L10.5079 11.4506C9.54301 12.2121 8.32457 12.6666 7 12.6666C3.87038 12.6666 1.33333 10.1295 1.33333 6.99992ZM10.1065 10.0211C10.0912 10.0339 10.0763 10.0475 10.0619 10.0618C10.0475 10.0762 10.034 10.0911 10.0212 10.1064C9.24061 10.8657 8.17491 11.3333 7 11.3333C4.60676 11.3333 2.66666 9.39315 2.66666 6.99992C2.66666 4.60668 4.60676 2.66659 7 2.66659C9.39323 2.66659 11.3333 4.60668 11.3333 6.99992C11.3333 8.17483 10.8657 9.24053 10.1065 10.0211Z" fill="white"/>
</svg>
