<svg width="24" height="24" viewBox="0 0 24 24" fill="none" xmlns="http://www.w3.org/2000/svg">
<path d="M5.50788 18.4921C7.51838 20.5026 10.7895 20.5026 12.8 18.4921C14.1733 17.1188 14.6503 15.095 14.0557 13.2589L19.8627 7.45197C19.9506 7.36406 20 7.24506 20 7.12053V4.46871C20 4.20962 19.7903 3.99996 19.5312 3.99996H16.8794C16.7549 3.99996 16.6359 4.0494 16.548 4.1373L15.8852 4.80062C15.784 4.90177 15.7346 5.04368 15.7511 5.18606L15.8335 5.89834L14.8465 5.99127C14.6222 6.01234 14.4451 6.1895 14.424 6.41381L14.3311 7.40075L13.6188 7.3179C13.4865 7.30006 13.3533 7.34447 13.253 7.43325C13.1532 7.5225 13.096 7.64978 13.096 7.78343V8.65622H12.2391C12.1146 8.65622 11.9955 8.70565 11.9077 8.79356L10.7056 9.97975C8.86995 9.38466 6.88116 9.82572 5.50788 11.1999C3.49737 13.2104 3.49737 16.4816 5.50788 18.4921ZM6.83397 15.1774C7.38238 14.629 8.2741 14.629 8.82251 15.1774C9.37092 15.7259 9.37092 16.6176 8.82251 17.166C8.2741 17.7144 7.38238 17.7144 6.83397 17.166C6.28557 16.6176 6.2856 15.7259 6.83397 15.1774Z" fill="#1AA294"/>
</svg>
